# xmcd
#
# Track frame offsets:
#	150
#	14187
#	34840
#	57142
#	71115
#	88187
#	102552
#	119762
#	138092
#	154305
#	170940
#	191642
#	212005
#	232142
#	249605
#
# Disc length: 3524 seconds
#
# Revision: 5
# Processed by: cddbd v1.5.2PL0 Copyright (c) Steve Scherf et al.
# Submitted via: audiograbber 1.83.01
#
DISCID=ed0dc20f
DTITLE=Various Artist - I've Always Been Crazy - Tribute to Waylon Jennings
DYEAR=2003
DGENRE=Country
TTITLE0=John Mellencamp - Are You Sure Hank Done It This Way
TTITLE1=Travis Tritt - Lonesome, On'ry And Mean
TTITLE2=Kenny Chesney and Kid Rock - Luckenbach, Texas (Back To The Basics Of Lov
TTITLE2=e)
TTITLE3=Dwight Yoakam - Stop The World (And Let Me Off)
TTITLE4=Jessi Colter - Storms Never Last
TTITLE5=Hank Williams Jr - Only Daddy That'll Walk The Line
TTITLE6=Pinmonkey - Are You Ready For The Country
TTITLE7=Deana Carter and Sara Evans - Mammas Don't Let Your Babies Grow Up To Be 
TTITLE7=Cowboys
TTITLE8=Ben Harper - Waymore's Blues
TTITLE9=Allison Krauss - You Asked Me To
TTITLE10=Andy Griggs - This Time
TTITLE11=Stargunn - I've Always Been Crazy
TTITLE12=Brooks and Dunn - I Ain't Living Long Like This
TTITLE13=James Hetfield - Don't You Think This Outlaw Bit's Done Got Out Of Han
TTITLE13=d
TTITLE14=Waylon Jennings - The Dream
EXTD=
EXTT0=
EXTT1=
EXTT2=
EXTT3=
EXTT4=
EXTT5=
EXTT6=
EXTT7=
EXTT8=
EXTT9=
EXTT10=
EXTT11=
EXTT12=
EXTT13=
EXTT14=
PLAYORDER=
